<?xml version="1.0" encoding="UTF-8" standalone="no"?>
<!-- Created with Inkscape (http://www.inkscape.org/) -->

<svg
   xmlns:dc="http://purl.org/dc/elements/1.1/"
   xmlns:cc="http://creativecommons.org/ns#"
   xmlns:rdf="http://www.w3.org/1999/02/22-rdf-syntax-ns#"
   xmlns:svg="http://www.w3.org/2000/svg"
   xmlns="http://www.w3.org/2000/svg"
   xmlns:sodipodi="http://sodipodi.sourceforge.net/DTD/sodipodi-0.dtd"
   xmlns:inkscape="http://www.inkscape.org/namespaces/inkscape"
   width="220"
   height="220"
   id="svg2"
   version="1.1"
   inkscape:version="0.48.2 r9819"
   sodipodi:docname="logo.svg"
   inkscape:export-filename="C:\Users\Thomas\neon\client\images\logo.png"
   inkscape:export-xdpi="90"
   inkscape:export-ydpi="90">
  <defs
     id="defs4" />
  <sodipodi:namedview
     id="base"
     pagecolor="#ffffff"
     bordercolor="#666666"
     borderopacity="1.0"
     inkscape:pageopacity="0.0"
     inkscape:pageshadow="2"
     inkscape:zoom="2.9187176"
     inkscape:cx="110"
     inkscape:cy="111.8642"
     inkscape:document-units="px"
     inkscape:current-layer="layer1"
     showgrid="true"
     inkscape:window-width="1440"
     inkscape:window-height="850"
     inkscape:window-x="-8"
     inkscape:window-y="-8"
     inkscape:window-maximized="1">
    <inkscape:grid
       type="xygrid"
       id="grid3851"
       empspacing="5"
       visible="true"
       enabled="true"
       snapvisiblegridlinesonly="true" />
  </sodipodi:namedview>
  <metadata
     id="metadata7">
    <rdf:RDF>
      <cc:Work
         rdf:about="">
        <dc:format>image/svg+xml</dc:format>
        <dc:type
           rdf:resource="http://purl.org/dc/dcmitype/StillImage" />
        <dc:title></dc:title>
      </cc:Work>
    </rdf:RDF>
  </metadata>
  <g
     inkscape:label="Layer 1"
     inkscape:groupmode="layer"
     id="layer1"
     transform="translate(0,-832.36218)">
    <path
       sodipodi:type="arc"
       style="fill:#ff8430;fill-opacity:1;stroke:none"
       id="path2985"
       sodipodi:cx="146.32466"
       sodipodi:cy="149.54059"
       sodipodi:rx="42.036755"
       sodipodi:ry="41.577335"
       d="m 188.36142,149.54059 c 0,22.96253 -18.8205,41.57733 -42.03676,41.57733 -23.21626,0 -42.03675,-18.6148 -42.03675,-41.57733 0,-22.96253 18.82049,-41.57734 42.03675,-41.57734 23.21626,0 42.03676,18.61481 42.03676,41.57734 z"
       transform="matrix(1.1894353,0,0,1.2025783,-64.043717,762.52791)" />
    <path
       sodipodi:type="arc"
       style="fill:none;stroke:#ff8430;stroke-width:4.64287477999999960;stroke-linecap:butt;stroke-linejoin:miter;stroke-miterlimit:4;stroke-opacity:1;stroke-dasharray:none"
       id="path2987"
       sodipodi:cx="150.5"
       sodipodi:cy="151"
       sodipodi:rx="65.5"
       sodipodi:ry="122"
       d="m 216,151 c 0,67.37874 -29.32535,122 -65.5,122 C 114.32535,273 85,218.37874 85,151 85,83.621261 114.32535,29 150.5,29 186.67465,29 216,83.621261 216,151 z"
       transform="matrix(-0.80385129,-0.80385129,-0.72137379,0.72137379,339.90706,954.41435)" />
    <path
       sodipodi:type="arc"
       style="fill:none;stroke:#ff8430;stroke-width:4.64287477999999960;stroke-linecap:butt;stroke-linejoin:miter;stroke-miterlimit:4;stroke-opacity:1;stroke-dasharray:none"
       id="path2987-1"
       sodipodi:cx="150.5"
       sodipodi:cy="151"
       sodipodi:rx="65.5"
       sodipodi:ry="122"
       d="m 216,151 c 0,67.37874 -29.32535,122 -65.5,122 C 114.32535,273 85,218.37874 85,151 85,83.621261 114.32535,29 150.5,29 186.67465,29 216,83.621261 216,151 z"
       transform="matrix(0.80385129,-0.80385129,0.72137379,0.72137379,-119.90706,954.41436)" />
    <path
       sodipodi:type="arc"
       style="fill:#ff8430;fill-opacity:1;stroke:none"
       id="path3775-1"
       sodipodi:cx="33.078102"
       sodipodi:cy="52.373661"
       sodipodi:rx="21.592649"
       sodipodi:ry="22.052067"
       d="m 54.670752,52.373661 c 0,12.17902 -9.667359,22.052067 -21.59265,22.052067 -11.925291,0 -21.592649,-9.873047 -21.592649,-22.052067 0,-12.17902 9.667358,-22.052067 21.592649,-22.052067 11.925291,0 21.59265,9.873047 21.59265,22.052067 z"
       transform="matrix(0.92624113,0,0,0.90694448,79.361701,804.86218)" />
    <path
       sodipodi:type="arc"
       style="fill:#ff8430;fill-opacity:1;stroke:none"
       id="path3775-1-6"
       sodipodi:cx="33.078102"
       sodipodi:cy="52.373661"
       sodipodi:rx="21.592649"
       sodipodi:ry="22.052067"
       d="m 54.670752,52.373661 c 0,12.17902 -9.667359,22.052067 -21.59265,22.052067 -11.925291,0 -21.592649,-9.873047 -21.592649,-22.052067 0,-12.17902 9.667358,-22.052067 21.592649,-22.052067 11.925291,0 21.59265,9.873047 21.59265,22.052067 z"
       transform="matrix(0.92624113,0,0,0.90694448,169.3617,804.86218)" />
    <path
       sodipodi:type="arc"
       style="fill:#ff8430;fill-opacity:1;stroke:none"
       id="path3775-1-8"
       sodipodi:cx="33.078102"
       sodipodi:cy="52.373661"
       sodipodi:rx="21.592649"
       sodipodi:ry="22.052067"
       d="m 54.670752,52.373661 c 0,12.17902 -9.667359,22.052067 -21.59265,22.052067 -11.925291,0 -21.592649,-9.873047 -21.592649,-22.052067 0,-12.17902 9.667358,-22.052067 21.592649,-22.052067 11.925291,0 21.59265,9.873047 21.59265,22.052067 z"
       transform="matrix(0.92624113,0,0,0.90694448,24.361701,839.86218)" />
    <path
       sodipodi:type="arc"
       style="fill:#ff8430;fill-opacity:1;stroke:none"
       id="path3775-1-5"
       sodipodi:cx="33.078102"
       sodipodi:cy="52.373661"
       sodipodi:rx="21.592649"
       sodipodi:ry="22.052067"
       d="m 54.670752,52.373661 c 0,12.17902 -9.667359,22.052067 -21.59265,22.052067 -11.925291,0 -21.592649,-9.873047 -21.592649,-22.052067 0,-12.17902 9.667358,-22.052067 21.592649,-22.052067 11.925291,0 21.59265,9.873047 21.59265,22.052067 z"
       transform="matrix(0.92624113,0,0,0.90694448,-10.638299,804.86218)" />
    <path
       sodipodi:type="arc"
       style="fill:#ff8430;fill-opacity:1;stroke:none"
       id="path3775-1-7"
       sodipodi:cx="33.078102"
       sodipodi:cy="52.373661"
       sodipodi:rx="21.592649"
       sodipodi:ry="22.052067"
       d="m 54.670752,52.373661 c 0,12.17902 -9.667359,22.052067 -21.59265,22.052067 -11.925291,0 -21.592649,-9.873047 -21.592649,-22.052067 0,-12.17902 9.667358,-22.052067 21.592649,-22.052067 11.925291,0 21.59265,9.873047 21.59265,22.052067 z"
       transform="matrix(0.92624113,0,0,0.90694448,169.3617,894.86218)" />
    <path
       sodipodi:type="arc"
       style="fill:#ff8430;fill-opacity:1;stroke:none"
       id="path3775-1-61"
       sodipodi:cx="33.078102"
       sodipodi:cy="52.373661"
       sodipodi:rx="21.592649"
       sodipodi:ry="22.052067"
       d="m 54.670752,52.373661 c 0,12.17902 -9.667359,22.052067 -21.59265,22.052067 -11.925291,0 -21.592649,-9.873047 -21.592649,-22.052067 0,-12.17902 9.667358,-22.052067 21.592649,-22.052067 11.925291,0 21.59265,9.873047 21.59265,22.052067 z"
       transform="matrix(0.92624113,0,0,0.90694448,134.3617,949.86218)" />
    <path
       sodipodi:type="arc"
       style="fill:#ff8430;fill-opacity:1;stroke:none"
       id="path3775-1-89"
       sodipodi:cx="33.078102"
       sodipodi:cy="52.373661"
       sodipodi:rx="21.592649"
       sodipodi:ry="22.052067"
       d="m 54.670752,52.373661 c 0,12.17902 -9.667359,22.052067 -21.59265,22.052067 -11.925291,0 -21.592649,-9.873047 -21.592649,-22.052067 0,-12.17902 9.667358,-22.052067 21.592649,-22.052067 11.925291,0 21.59265,9.873047 21.59265,22.052067 z"
       transform="matrix(0.92624113,0,0,0.90694448,169.3617,984.86218)" />
    <path
       sodipodi:type="arc"
       style="fill:#ff8430;fill-opacity:1;stroke:none"
       id="path3775-1-2"
       sodipodi:cx="33.078102"
       sodipodi:cy="52.373661"
       sodipodi:rx="21.592649"
       sodipodi:ry="22.052067"
       d="m 54.670752,52.373661 c 0,12.17902 -9.667359,22.052067 -21.59265,22.052067 -11.925291,0 -21.592649,-9.873047 -21.592649,-22.052067 0,-12.17902 9.667358,-22.052067 21.592649,-22.052067 11.925291,0 21.59265,9.873047 21.59265,22.052067 z"
       transform="matrix(0.92624113,0,0,0.90694448,79.361701,984.86218)" />
    <path
       sodipodi:type="arc"
       style="fill:#ff8430;fill-opacity:1;stroke:none"
       id="path3775-1-79"
       sodipodi:cx="33.078102"
       sodipodi:cy="52.373661"
       sodipodi:rx="21.592649"
       sodipodi:ry="22.052067"
       d="m 54.670752,52.373661 c 0,12.17902 -9.667359,22.052067 -21.59265,22.052067 -11.925291,0 -21.592649,-9.873047 -21.592649,-22.052067 0,-12.17902 9.667358,-22.052067 21.592649,-22.052067 11.925291,0 21.59265,9.873047 21.59265,22.052067 z"
       transform="matrix(0.92624113,0,0,0.90694448,-10.638299,984.86218)" />
    <path
       sodipodi:type="arc"
       style="fill:#ff8430;fill-opacity:1;stroke:none"
       id="path3775-1-54"
       sodipodi:cx="33.078102"
       sodipodi:cy="52.373661"
       sodipodi:rx="21.592649"
       sodipodi:ry="22.052067"
       d="m 54.670752,52.373661 c 0,12.17902 -9.667359,22.052067 -21.59265,22.052067 -11.925291,0 -21.592649,-9.873047 -21.592649,-22.052067 0,-12.17902 9.667358,-22.052067 21.592649,-22.052067 11.925291,0 21.59265,9.873047 21.59265,22.052067 z"
       transform="matrix(0.92624113,0,0,0.90694448,-10.638299,894.86218)" />
  </g>
</svg>
